<svg xmlns="http://www.w3.org/2000/svg" width="20" height="17.333" viewBox="0 0 20 17.333"><defs><style>.a{fill:#fff;}</style></defs><path class="a" d="M17.944,7.7c.013.19.013.379.013.569,0,5.782-4.124,12.445-11.662,12.445A11.061,11.061,0,0,1,0,18.751a7.952,7.952,0,0,0,.99.054,7.887,7.887,0,0,0,5.089-1.869A4.149,4.149,0,0,1,2.246,13.9a4.852,4.852,0,0,0,.774.068A4.079,4.079,0,0,0,4.1,13.821,4.314,4.314,0,0,1,.812,9.529V9.475a3.934,3.934,0,0,0,1.853.555A4.454,4.454,0,0,1,.838,6.387,4.566,4.566,0,0,1,1.4,4.18,11.427,11.427,0,0,0,9.848,8.757a5.256,5.256,0,0,1-.1-1,4.241,4.241,0,0,1,4.1-4.374A3.974,3.974,0,0,1,16.84,4.762a7.769,7.769,0,0,0,2.6-1.056,4.323,4.323,0,0,1-1.8,2.41A7.814,7.814,0,0,0,20,5.439,9.157,9.157,0,0,1,17.944,7.7Z" transform="translate(0 -3.381)"/></svg>