<svg xmlns="http://www.w3.org/2000/svg" width="26" height="22.533" viewBox="0 0 26 22.533"><defs><style>.a{fill:#fff;}</style></defs><path class="a" d="M23.327,9c.017.246.017.493.017.739,0,7.517-5.362,16.178-15.161,16.178A14.379,14.379,0,0,1,0,23.362a10.337,10.337,0,0,0,1.287.07A10.254,10.254,0,0,0,7.9,21,5.394,5.394,0,0,1,2.92,17.059a6.307,6.307,0,0,0,1.006.088,5.3,5.3,0,0,0,1.4-.194,5.608,5.608,0,0,1-4.273-5.581V11.3a5.115,5.115,0,0,0,2.409.722A5.791,5.791,0,0,1,1.089,7.289a5.935,5.935,0,0,1,.726-2.869A14.855,14.855,0,0,0,12.8,10.37a6.833,6.833,0,0,1-.132-1.3A5.514,5.514,0,0,1,18,3.381a5.166,5.166,0,0,1,3.893,1.8A10.1,10.1,0,0,0,25.274,3.8a5.62,5.62,0,0,1-2.343,3.134A10.159,10.159,0,0,0,26,6.057,11.9,11.9,0,0,1,23.327,9Z" transform="translate(0 -3.381)"/></svg>